{"title":"Man.in.the.Chair.2007.DVDRIP-ZEKTORM","uid":4730531,"size":746144213,"categoryP":"video","categoryS":"movies","magnet":"?xt=urn:btih:c585f49029b3ce151a1f3c1d31a48dcadf92d145&amp;dn=Man.in.the.Chair.2007.DVDRIP-ZEKTORM&amp;tr=udp%3A%2F%2Ftracker.openbittorrent.com%3A80&amp;tr=udp%3A%2F%2Fopen.demonii.com%3A1337&amp;tr=udp%3A%2F%2Ftracker.coppersurfer.tk%3A6969&amp;tr=udp%3A%2F%2Fexodus.desync.com%3A6969","seeders":1,"leechers":1,"uploader":"blowley","files":4,"time":1234994001,"description":"Title                            : Man in the Chair\nYear                             : 2007\nGenre                            : Comedy | Drama\niMDB Rate                        : User Rating: 7.8/10   339 votes \niMDB URL                         : http://www.imdb.com/title/tt0489225/\nAwards                           : 8 wins &amp; 1 nomination \n\nComplete name                    : Man.in.the.Chair.2007.DVDRIP-ZEKTORM.mp4\nFormat                           : MPEG-4\nFormat profile                   : Base Media\nCodec ID                         : isom\nFile size                        : 700 MiB\nDuration                         : 1h 49mn\nOverall bit rate                 : 896 Kbps\nSubtitles                        : English, Spanish (Format: VobSub)\nSource                           : DVD NTSC\nEncoded date                     : UTC 2009-02-13 18:51:20\n\nVideo\nFormat                           : AVC\nFormat/Info                      : Advanced Video Codec\nFormat profile                   : &lt;a class=&quot;__cf_email__&quot; href=&quot;/cdn-cgi/l/email-protection&quot; data-cfemail=&quot;ce86a7a9a68e82fae0ff&quot;&gt;[email&amp;#160;protected]&lt;/a&gt;&lt;script cf-hash='f9e31' type=&quot;text/javascript&quot;&gt;\n/* &lt;![CDATA[ */!function(){try{var t=&quot;currentScript&quot;in document?document.currentScript:function(){for(var t=document.getElementsByTagName(&quot;script&quot;),e=t.length;e--;)if(t[e].getAttribute(&quot;cf-hash&quot;))return t[e]}();if(t&amp;&amp;t.previousSibling){var e,r,n,i,c=t.previousSibling,a=c.getAttribute(&quot;data-cfemail&quot;);if(a){for(e=&quot;&quot;,r=parseInt(a.substr(0,2),16),n=2;a.length-n;n+=2)i=parseInt(a.substr(n,2),16)^r,e+=String.fromCharCode(i);e=document.createTextNode(e),c.parentNode.replaceChild(e,c)}}}catch(u){}}();/* ]]&gt; */&lt;/script&gt;\nFormat settings, CABAC           : Yes\nFormat settings, ReFrames        : 10 frames\nCodec ID                         : avc1\nCodec ID/Info                    : Advanced Video Coding\nDuration                         : 1h 49mn\nBit rate mode                    : Variable\nBit rate                         : 813 Kbps\nMaximum bit rate                 : 7530 Kbps\nWidth                            : 720 pixels\nHeight                           : 368 pixels\nDisplay aspect ratio             : 2.35\nFrame rate mode                  : Constant\nFrame rate                       : 23.976 fps\nResolution                       : 24 bits\nColorimetry                      : 4:2:0\nScan type                        : Progressive\nBits/(Pixel*Frame)               : 0.128\nStream size                      : 636 MiB (91%)\nTitle                            : Video\nWriting library                  : x264 core 60 r900 a9af942\n\nAudio\nFormat                           : AAC\nFormat/Info                      : Advanced Audio Codec\nFormat version                   : Version 4\nFormat profile                   : LC\nFormat settings, SBR             : Yes\nFormat settings, PS              : No\nCodec ID                         : 40\nDuration                         : 1h 49mn\nBit rate mode                    : Variable\nBit rate                         : 79.6 Kbps\nMaximum bit rate                 : 105 Kbps\nChannel(s)                       : 2 channels\nChannel positions                : L R\nSampling rate                    : 48.0 KHz\nResolution                       : 16 bits\nStream size                      : 62.2 MiB (9%)\nTitle                            : English\nLanguage                         : English\n\nNotes                            : Convert to DVD with Nero\n","torrent":{"xt":"urn:btih:c585f49029b3ce151a1f3c1d31a48dcadf92d145","amp;dn":"Man.in.the.Chair.2007.DVDRIP-ZEKTORM","amp;tr":["udp%3A%2F%2Ftracker.openbittorrent.com%3A80","udp%3A%2F%2Fopen.demonii.com%3A1337","udp%3A%2F%2Ftracker.coppersurfer.tk%3A6969","udp%3A%2F%2Fexodus.desync.com%3A6969"],"infoHash":"c585f49029b3ce151a1f3c1d31a48dcadf92d145","infoHashBuffer":{"type":"Buffer","data":[197,133,244,144,41,179,206,21,26,31,60,29,49,164,141,202,223,146,209,69]},"announce":[],"urlList":[]}}